<?xml version="1.0" encoding="iso-8859-1"?>
<!-- Generator: Adobe Illustrator 22.0.1, SVG Export Plug-In . SVG Version: 6.00 Build 0)  -->
<svg version="1.1" id="&#xB808;&#xC774;&#xC5B4;_1" xmlns="http://www.w3.org/2000/svg" xmlns:xlink="http://www.w3.org/1999/xlink"
	 x="0px" y="0px" viewBox="0 0 36 19" style="enable-background:new 0 0 36 19;" xml:space="preserve">
<rect x="0.531" y="0.516" style="fill:none;stroke:#CECFFF;stroke-width:0.5;stroke-miterlimit:10;" width="35" height="18"/>
<polygon style="fill:#4A59FF;stroke:#000000;stroke-width:0.25;stroke-miterlimit:10;" points="3.031,2.016 9.126,2.016 
	11.014,6.283 12.924,2.016 18.955,2.016 18.955,17.016 3.031,17.016 "/>
<polygon style="fill:#FFFFFF;stroke:#000000;stroke-width:0.25;stroke-miterlimit:10;" points="8.525,2.861 3.997,2.861 
	3.997,16.151 9.77,16.151 6.422,10.568 6.529,8.895 10.95,16.376 15.585,8.933 15.692,10.605 12.238,16.151 17.968,16.151 
	17.968,2.861 13.611,2.861 10.95,8.294 "/>
<polygon style="fill:#4A59FF;stroke:#000000;stroke-width:0.25;stroke-miterlimit:10;" points="27.881,12.223 27.881,17.016 
	20.435,17.016 20.435,2.016 33.031,2.016 33.031,12.223 "/>
<path style="fill:#FFFFFF;stroke:#000000;stroke-width:0.25;stroke-miterlimit:10;" d="M32.109,2.824H21.357v13.402h5.708v-4.774
	h5.044V7.58h-4.851c-0.056,0-0.103-0.047-0.139-0.141c-0.037-0.094-0.055-0.185-0.055-0.273c0-0.1,0.015-0.194,0.044-0.282
	s0.085-0.132,0.172-0.132h4.828V2.824z"/>
</svg>
