<!-- Generator: Adobe Illustrator 16.0.0, SVG Export Plug-In . SVG Version: 6.00 Build 0)  -->
<!DOCTYPE svg PUBLIC "-//W3C//DTD SVG 1.1//EN" "http://www.w3.org/Graphics/SVG/1.1/DTD/svg11.dtd">
<svg version="1.1" id="Layer_1" xmlns="http://www.w3.org/2000/svg" xmlns:xlink="http://www.w3.org/1999/xlink" x="0px" y="0px"
	 width="30px" height="30px" viewBox="0 0 512 512" style="enable-background:new 0 0 512 512;" xml:space="preserve">
<g>
	<path style="fill:#F3F3F3;" d="M44.133,194.2h203.033v44.134H44.133V194.2z"/>
	<path style="fill:#F3F3F3;" d="M44.133,256h203.033v44.134H44.133V256z"/>
	<path style="fill:#F3F3F3;" d="M247.166,132.417H52.967c-4.867,0-8.834,3.95-8.834,8.816v35.317h203.033V132.417z"/>
	<path style="fill:#F3F3F3;" d="M44.133,379.584h203.033v44.149H44.133V379.584z"/>
	<path style="fill:#F3F3F3;" d="M44.133,317.801h203.033v44.133H44.133V317.801z"/>
	<path style="fill:#F3F3F3;" d="M52.967,467.867h194.199v-26.483H44.133v17.649C44.133,463.9,48.1,467.867,52.967,467.867z"/>
	<path style="fill:#F3F3F3;" d="M467.866,459.033v-17.649H264.833v26.483h194.2C463.899,467.867,467.866,463.9,467.866,459.033z"/>
	<path style="fill:#F3F3F3;" d="M264.833,379.584h203.033v44.149H264.833V379.584z"/>
	<path style="fill:#F3F3F3;" d="M264.833,317.801h203.033v44.133H264.833V317.801z"/>
	<path style="fill:#F3F3F3;" d="M467.866,141.233c0-4.867-3.967-8.816-8.833-8.816h-194.2v44.134h203.033V141.233z"/>
	<path style="fill:#F3F3F3;" d="M264.833,256h203.033v44.134H264.833V256z"/>
	<path style="fill:#F3F3F3;" d="M264.833,194.2h203.033v44.134H264.833V194.2z"/>
	<path style="fill:#F3F3F3;" d="M35.3,512h441.4c19.5,0,35.3-15.8,35.3-35.3V35.3C512,15.8,496.2,0,476.7,0H35.3
		C15.8,0,0,15.8,0,35.3v441.4C0,496.2,15.8,512,35.3,512z M388.416,35.3h70.617c4.866,0,8.833,3.967,8.833,8.833
		c0,4.883-3.967,8.833-8.833,8.833h-70.617c-4.883,0-8.833-3.95-8.833-8.833C379.583,39.267,383.533,35.3,388.416,35.3z
		 M300.133,35.3H353.1c4.884,0,8.833,3.967,8.833,8.833c0,4.883-3.949,8.833-8.833,8.833h-52.967c-4.866,0-8.833-3.95-8.833-8.833
		C291.3,39.267,295.267,35.3,300.133,35.3z M300.133,70.617h158.9c4.866,0,8.833,3.95,8.833,8.833s-3.967,8.817-8.833,8.817h-158.9
		c-4.866,0-8.833-3.934-8.833-8.817S295.267,70.617,300.133,70.617z M247.166,35.3c0-4.867,3.967-8.817,8.834-8.817
		c4.866,0,8.833,3.95,8.833,8.817v52.967c0,4.883-3.967,8.833-8.833,8.833c-4.867,0-8.834-3.95-8.834-8.833V35.3z M141.233,35.3
		h70.633c4.867,0,8.834,3.967,8.834,8.833c0,4.883-3.967,8.833-8.834,8.833h-70.633c-4.867,0-8.817-3.95-8.817-8.833
		C132.416,39.267,136.366,35.3,141.233,35.3z M52.967,35.3h52.966c4.867,0,8.834,3.967,8.834,8.833c0,4.883-3.967,8.833-8.834,8.833
		H52.967c-4.867,0-8.834-3.95-8.834-8.833C44.133,39.267,48.1,35.3,52.967,35.3z M52.967,70.617h158.899
		c4.867,0,8.834,3.95,8.834,8.833s-3.967,8.817-8.834,8.817H52.967c-4.867,0-8.834-3.934-8.834-8.817S48.1,70.617,52.967,70.617z
		 M26.483,141.233c0.017-14.617,11.866-26.466,26.483-26.466h406.066c14.616,0,26.467,11.85,26.483,26.466v317.8
		c-0.017,14.617-11.867,26.467-26.483,26.484H52.967C38.35,485.5,26.5,473.65,26.483,459.033V141.233L26.483,141.233z"/>
</g>
</svg>
