<!-- Generator: Adobe Illustrator 16.0.0, SVG Export Plug-In . SVG Version: 6.00 Build 0)  -->
<!DOCTYPE svg PUBLIC "-//W3C//DTD SVG 1.1//EN" "http://www.w3.org/Graphics/SVG/1.1/DTD/svg11.dtd">
<svg version="1.1" id="Layer_1" xmlns="http://www.w3.org/2000/svg" xmlns:xlink="http://www.w3.org/1999/xlink" x="0px" y="0px"
	 width="30px" height="30px" viewBox="0 0 512 512" style="enable-background:new 0 0 512 512;" xml:space="preserve">
<g>
	<g>
		<g>
			<path style="fill:#F3F3F3;" d="M478.577,99.445h-37.244c4.934-7.792,8.178-16.518,9.066-25.8
				c2.979-29.54-12.577-56.052-39.021-67.806C387.021-4.979,359.688-0.55,340,17.348l-47.022,42.718
				C283.822,50.026,270.622,43.727,256,43.727c-14.645,0-27.845,6.322-37,16.384l-47.134-42.763
				C152.155-0.55,124.822-4.935,100.511,5.861c-26.467,11.753-42,38.244-39.044,67.828c0.934,9.261,4.178,17.987,9.067,25.778
				H33.377C14.955,99.445,0,114.426,0,132.902v50.175c0,9.26,7.467,16.74,16.711,16.74h478.578c9.244,0,16.711-7.48,16.711-16.74
				v-50.175C512,114.426,497.066,99.445,478.577,99.445z M205.911,93.879v5.565h-78.556c-20.756,0-37.089-19.367-31.911-41.004
				c2.289-9.55,9.155-17.653,18.044-21.771c12.2-5.654,25.733-3.829,35.956,5.454l56.488,51.288
				C205.933,93.546,205.911,93.724,205.911,93.879z M417.289,69.237c-1.245,17.386-16.934,30.23-34.356,30.23h-76.889v-5.565
				c0-0.201,0-0.401,0-0.601c12.8-11.62,40.533-36.797,55.645-50.487c8.533-7.769,20.533-11.397,31.556-8.08
				C409.155,39.475,418.488,53.009,417.289,69.237z"/>
		</g>
	</g>
	<g>
		<g>
			<path style="fill:#F3F3F3;" d="M33.4,233.253V478.52c0,18.477,14.956,33.48,33.4,33.48h155.822V233.253H33.4z"/>
		</g>
	</g>
	<g>
		<g>
			<path style="fill:#F3F3F3;" d="M289.422,233.253V512h155.822c18.4,0,33.333-15.004,33.333-33.48V233.253H289.422z"/>
		</g>
	</g>
</g>
</svg>
