<!-- Generator: Adobe Illustrator 16.0.0, SVG Export Plug-In . SVG Version: 6.00 Build 0)  -->
<!DOCTYPE svg PUBLIC "-//W3C//DTD SVG 1.1//EN" "http://www.w3.org/Graphics/SVG/1.1/DTD/svg11.dtd">
<svg version="1.1" id="Capa_1" xmlns="http://www.w3.org/2000/svg" xmlns:xlink="http://www.w3.org/1999/xlink" x="0px" y="0px"
	 width="30px" height="30px" viewBox="25 0 30 30" enable-background="new 25 0 30 30" xml:space="preserve">
<g id="Settings">
	<g>
		<path fill="#F3F3F3" d="M54.906,13.334c-0.049-0.422-0.539-0.739-0.965-0.739c-1.375,0-2.594-0.807-3.105-2.055
			c-0.523-1.279-0.186-2.77,0.838-3.709c0.322-0.295,0.361-0.788,0.092-1.131c-0.703-0.893-1.504-1.7-2.377-2.4
			c-0.342-0.274-0.844-0.236-1.14,0.092c-0.894,0.99-2.5,1.358-3.741,0.84c-1.291-0.543-2.105-1.852-2.025-3.256
			c0.025-0.441-0.297-0.825-0.735-0.876c-1.121-0.13-2.251-0.134-3.375-0.009c-0.435,0.048-0.757,0.423-0.743,0.858
			c0.049,1.391-0.775,2.677-2.054,3.2c-1.227,0.501-2.821,0.136-3.713-0.845c-0.295-0.323-0.789-0.363-1.132-0.095
			c-0.899,0.706-1.717,1.513-2.427,2.399c-0.277,0.345-0.236,0.844,0.089,1.14c1.044,0.946,1.381,2.45,0.839,3.743
			c-0.518,1.233-1.798,2.028-3.264,2.028c-0.476-0.016-0.814,0.304-0.867,0.736c-0.132,1.127-0.133,2.275-0.006,3.411
			c0.047,0.424,0.554,0.738,0.983,0.738c1.306-0.034,2.561,0.775,3.086,2.055c0.524,1.279,0.188,2.77-0.839,3.709
			c-0.321,0.295-0.361,0.788-0.091,1.131c0.697,0.889,1.497,1.695,2.373,2.4c0.343,0.277,0.844,0.238,1.142-0.09
			c0.897-0.993,2.503-1.36,3.739-0.842c1.295,0.541,2.109,1.851,2.029,3.256c-0.026,0.44,0.298,0.826,0.736,0.877
			c0.573,0.065,1.15,0.1,1.728,0.1c0.549,0,1.098-0.03,1.647-0.092c0.436-0.047,0.757-0.422,0.742-0.858
			c-0.051-1.39,0.775-2.676,2.053-3.198c1.234-0.504,2.822-0.136,3.715,0.846c0.297,0.322,0.786,0.361,1.133,0.095
			c0.896-0.703,1.713-1.511,2.426-2.399c0.277-0.344,0.238-0.844-0.09-1.14c-1.043-0.944-1.383-2.448-0.84-3.742
			c0.51-1.217,1.742-2.032,3.068-2.032l0.186,0.004c0.431,0.035,0.826-0.297,0.877-0.734C55.031,15.617,55.033,14.471,54.906,13.334
			z M40.024,20.035c-2.759,0-5.003-2.244-5.003-5.003c0-2.759,2.244-5.003,5.003-5.003c2.759,0,5.003,2.245,5.003,5.003
			C45.027,17.791,42.783,20.035,40.024,20.035z"/>
	</g>
</g>
</svg>
