<?xml version="1.0" encoding="utf-8"?>
<!-- Generator: Adobe Illustrator 22.0.1, SVG Export Plug-In . SVG Version: 6.00 Build 0)  -->
<svg version="1.1" id="Layer_1" xmlns="http://www.w3.org/2000/svg" xmlns:xlink="http://www.w3.org/1999/xlink" x="0px" y="0px"
	 viewBox="0 0 30 30" style="enable-background:new 0 0 30 30;" xml:space="preserve">
<style type="text/css">
	.st0{fill:#F3F3F3;}
</style>
<g>
	<path class="st0" d="M13.2,7.4H3.5v14.9h6.7L13.2,7.4z M5.3,18.6v-7.4h5.3L9,18.6H5.3z"/>
	<path class="st0" d="M26.5,22.3V7.4h-9.9l3.2,14.9C19.8,22.3,26.5,22.3,26.5,22.3z M24.7,11.2v7.4h-3.8l-1.6-7.4H24.7z"/>
	<path class="st0" d="M0,0v30h12.6l1.5-7.4h1.6l1.5,7.4H30V0H0z M28.2,26.3h-9.8l-1.5-7.4h-4l-1.5,7.4H1.8V3.7h26.5
		C28.2,3.7,28.2,26.3,28.2,26.3z"/>
</g>
</svg>
