<?xml version="1.0" encoding="utf-8"?>
<!-- Generator: Adobe Illustrator 22.0.1, SVG Export Plug-In . SVG Version: 6.00 Build 0)  -->
<svg version="1.1" id="Layer_1" xmlns="http://www.w3.org/2000/svg" xmlns:xlink="http://www.w3.org/1999/xlink" x="0px" y="0px"
	 viewBox="0 0 30 30" style="enable-background:new 0 0 30 30;" xml:space="preserve">
<style type="text/css">
	.st0{fill:#F3F3F3;}
</style>
<g>
	<g>
		<g>
			<path class="st0" d="M15,0C7.8,0,1.9,3.9,1.9,8.8v5.6c0,0.3,0.4,0.6,0.9,0.6s0.9-0.3,0.9-0.6V8.8c0-4.1,5-7.5,11.3-7.5
				s11.3,3.4,11.3,7.5v5.6c0,0.3,0.4,0.6,0.9,0.6c0.5,0,0.9-0.3,0.9-0.6V8.8C28.1,3.9,22.2,0,15,0z"/>
		</g>
	</g>
	<g>
		<g>
			<path class="st0" d="M15,2.5c-5.2,0-9.4,2.8-9.4,6.3v5.6C5.6,14.7,6,15,6.6,15s0.9-0.3,0.9-0.6V8.8c0-2.8,3.4-5,7.5-5
				s7.5,2.2,7.5,5v5.6c0,0.3,0.4,0.6,0.9,0.6c0.5,0,0.9-0.3,0.9-0.6V8.8C24.4,5.3,20.2,2.5,15,2.5z"/>
		</g>
	</g>
	<g>
		<g>
			<path class="st0" d="M27.2,13.8H2.8c-1.6,0-2.8,0.8-2.8,1.9v11.3C0,28.6,2.1,30,4.7,30h20.6c2.6,0,4.7-1.4,4.7-3.1V15.6
				C30,14.6,28.7,13.8,27.2,13.8z M28.1,26.9c0,1-1.3,1.9-2.8,1.9H4.7c-1.6,0-2.8-0.8-2.8-1.9V15.6c0-0.3,0.4-0.6,0.9-0.6h24.4
				c0.5,0,0.9,0.3,0.9,0.6L28.1,26.9L28.1,26.9z"/>
		</g>
	</g>
	<g>
		<g>
			<path class="st0" d="M17.5,21.8c0.8-0.5,1.2-1.1,1.2-1.8c0-1.4-1.7-2.5-3.8-2.5s-3.8,1.1-3.8,2.5c0,0.7,0.4,1.4,1.2,1.8l-1.2,2.3
				c-0.1,0.2,0,0.4,0.1,0.6c0.2,0.2,0.5,0.3,0.8,0.3h5.6c0.3,0,0.6-0.1,0.8-0.3c0.2-0.2,0.2-0.4,0.1-0.6L17.5,21.8z M15.5,21.8
				l1,1.9h-3l1-1.9c0.1-0.3,0-0.6-0.4-0.7c-0.6-0.2-0.9-0.6-0.9-1.1c0-0.7,0.8-1.3,1.9-1.3s1.9,0.6,1.9,1.3c0,0.4-0.3,0.8-0.9,1.1
				C15.6,21.2,15.4,21.5,15.5,21.8z"/>
		</g>
	</g>
</g>
</svg>
