<!-- Generator: Adobe Illustrator 16.0.0, SVG Export Plug-In . SVG Version: 6.00 Build 0)  -->
<!DOCTYPE svg PUBLIC "-//W3C//DTD SVG 1.1//EN" "http://www.w3.org/Graphics/SVG/1.1/DTD/svg11.dtd">
<svg version="1.1" id="Layer_1" xmlns="http://www.w3.org/2000/svg" xmlns:xlink="http://www.w3.org/1999/xlink" x="0px" y="0px"
	 width="30px" height="30px" viewBox="0 0 512 512" style="enable-background:new 0 0 512 512;" xml:space="preserve">
<g>
	<path style="fill:#F3F3F3;" d="M105.376,189.675h62.266v24.442h-62.266V189.675z"/>
	<path style="fill:#F3F3F3;" d="M255.235,61.525l-4.451,9.642h8.902L255.235,61.525z"/>
	<path style="fill:#F3F3F3;" d="M152.918,61.525l-4.451,9.642h8.902L152.918,61.525z"/>
	<path style="fill:#F3F3F3;" d="M51.337,429.283H512V0H67.522C30.293,0,0,25.408,0,56.633v392.683
		C12.34,437.066,30.771,429.283,51.337,429.283z M205.388,394.834H68.317v-30.067h137.071V394.834z M205.388,344.7H68.317v-30.067
		h137.071V344.7z M443.683,262.867v30.083H68.317v-30.083H443.683z M69.519,244.191V159.6H203.5v84.591H69.519z M443.683,212.733
		v30.083H239.258v-30.083H443.683z M239.258,192.683v-30.075h204.424v30.075H239.258z M273.924,396.2h-35.858V315h35.858V396.2z
		 M444.021,394.834H308.142v-30.067h135.879V394.834z M444.021,344.7H308.142v-30.067h135.879V344.7z M405.809,48.8h37.179v9.767
		H420.95v4.492h19.354v9.325H420.95v5.042h22.892v9.758h-38.054V48.8H405.809z M353.229,48.8h12.678l17.407,17.442V48.8h15.022
		v38.383h-12.678L368.272,69.75v17.433h-15.043V48.8L353.229,48.8z M330.338,48.8h15.44v38.383h-15.44V48.8z M283.81,79.233
		l20.914-20.4h-20.268V48.8h40.338v7.95l-20.914,20.4h21.967v10.033H283.81V79.233z M247.783,48.8h15.172l20,38.383h-15.957
		l-3.07-6.683h-17.387l-3.07,6.683h-15.688L247.783,48.8z M206.531,47.925c9.021,0,16.274,2.633,20.914,7.4l-9.866,7.292
		c-2.881-2.792-6.21-4.217-10.264-4.217c-6.806,0-11.118,3.667-11.118,9.592c0,5.758,4.312,9.592,10.919,9.592
		c1.898,0,3.726-0.267,5.624-0.925V66.95h13.403v16.233c-5.554,3.175-13.214,4.875-19.941,4.875
		c-14.774,0-25.564-8.275-25.564-20.066S191.429,47.925,206.531,47.925z M145.467,48.8h15.171l20,38.383h-15.957l-3.07-6.683
		h-17.387l-3.07,6.683h-15.698L145.467,48.8z M68.059,48.8h12.688l14.903,20.45l14.506-20.45h12.688l0.129,38.383h-14.059
		l-0.129-17.492l-9.936,14.042h-6.796L82.117,70.3v16.883H68.059V48.8z M67.959,107.458h375.724v30.075H67.959V107.458z"/>
	<path style="fill:#F3F3F3;" d="M51.337,459.367c-17.298,0-31.376,11.799-31.376,26.316C19.96,500.2,34.039,512,51.337,512H512
		v-52.633H51.337z"/>
</g>
</svg>
