<!-- Generator: Adobe Illustrator 16.0.0, SVG Export Plug-In . SVG Version: 6.00 Build 0)  -->
<!DOCTYPE svg PUBLIC "-//W3C//DTD SVG 1.1//EN" "http://www.w3.org/Graphics/SVG/1.1/DTD/svg11.dtd">
<svg version="1.1" id="Layer_1" xmlns="http://www.w3.org/2000/svg" xmlns:xlink="http://www.w3.org/1999/xlink" x="0px" y="0px"
	 width="30px" height="30px" viewBox="0 0 512 512" style="enable-background:new 0 0 512 512;" xml:space="preserve">
<g>
	<path style="fill:#F3F3F3;" d="M503.898,455.025c-38.576-27.138-78.486-32.892-112.797-29.784
		c34.711-45.112,55.82-104.324,55.82-169.241c0-141.342-100.086-256-223.461-256C100.088,0,0,114.658,0,256s100.088,256,223.461,256
		c31.91,0,62.311-7.688,89.775-21.487c0.889-0.358,7.557-4.024,8.756-4.684c24.666-13.237,97.553-44.55,164.129,2.292
		c8,5.546,18.488,2.75,23.377-6.417C514.387,472.592,511.898,460.625,503.898,455.025z M319.859,158.904
		c25.332-9.421,52.576,6.467,60.799,35.487c8.221,29.024-5.645,60.233-30.979,69.65c-25.332,9.475-52.531-6.463-60.797-35.487
		C280.615,199.537,294.482,168.325,319.859,158.904z M223.461,63.542c26.666,0,48.266,24.742,48.266,55.292
		c0,30.5-21.6,55.295-48.266,55.295s-48.266-24.745-48.266-55.295C175.195,88.284,196.795,63.542,223.461,63.542z M66.266,194.392
		c8.223-29.021,35.422-44.908,60.844-35.487c25.332,9.421,39.197,40.633,30.932,69.65c-8.223,29.074-35.465,44.962-60.799,35.487
		C71.91,254.625,58.043,223.416,66.266,194.392z M193.729,393.875c-15.688,24.695-45.82,30.195-67.42,12.221
		c-21.555-17.921-26.311-52.546-10.666-77.188c15.643-24.742,45.865-30.191,67.375-12.217
		C204.617,334.612,209.373,369.184,193.729,393.875z M223.461,277.892c-10.576,0-19.154-9.774-19.154-21.892
		s8.578-21.892,19.154-21.892c10.578,0,19.111,9.774,19.111,21.892S234.039,277.892,223.461,277.892z M253.238,393.875
		c-15.645-24.691-10.889-59.263,10.666-77.237c21.555-17.921,51.732-12.472,67.377,12.271
		c15.645,24.696,10.889,59.267-10.666,77.188C299.059,424.07,268.883,418.517,253.238,393.875z"/>
</g>
</svg>
