<!-- Generator: Adobe Illustrator 16.0.0, SVG Export Plug-In . SVG Version: 6.00 Build 0)  -->
<!DOCTYPE svg PUBLIC "-//W3C//DTD SVG 1.1//EN" "http://www.w3.org/Graphics/SVG/1.1/DTD/svg11.dtd">
<svg version="1.1" id="Capa_1" xmlns="http://www.w3.org/2000/svg" xmlns:xlink="http://www.w3.org/1999/xlink" x="0px" y="0px"
	 width="20px" height="20px" viewBox="0 0 20 20" enable-background="new 0 0 20 20" xml:space="preserve">
<g>
	<path fill="#F3F3F3" d="M19.824,18.98l-4.859-4.861c1.303-1.498,2.093-3.454,2.093-5.591C17.058,3.823,13.23,0,8.53,0
		C3.825,0,0.002,3.827,0.002,8.528s3.827,8.528,8.527,8.528c2.138,0,4.093-0.79,5.592-2.093l4.86,4.859
		C19.098,19.938,19.253,20,19.403,20c0.151,0,0.306-0.058,0.421-0.178C20.056,19.592,20.056,19.211,19.824,18.98z M1.195,8.528
		c0-4.044,3.29-7.331,7.33-7.331c4.045,0,7.33,3.291,7.33,7.331c0,4.04-3.285,7.334-7.33,7.334
		C4.485,15.862,1.195,12.572,1.195,8.528z"/>
</g>
</svg>
